<svg width="68" height="24" viewBox="0 0 68 24" fill="none" xmlns="http://www.w3.org/2000/svg">
<path d="M11.0489 2.92705C11.3483 2.00574 12.6517 2.00574 12.9511 2.92705L14.4697 7.60081C14.6035 8.01284 14.9875 8.2918 15.4207 8.2918H20.335C21.3037 8.2918 21.7065 9.53141 20.9228 10.1008L16.947 12.9894C16.5966 13.244 16.4499 13.6954 16.5838 14.1074L18.1024 18.7812C18.4017 19.7025 17.3472 20.4686 16.5635 19.8992L12.5878 17.0106C12.2373 16.756 11.7627 16.756 11.4122 17.0106L7.43648 19.8992C6.65276 20.4686 5.59828 19.7025 5.89763 18.7812L7.41623 14.1074C7.55011 13.6954 7.40345 13.244 7.05296 12.9894L3.07722 10.1008C2.29351 9.53141 2.69628 8.2918 3.66501 8.2918H8.57929C9.01252 8.2918 9.39647 8.01284 9.53035 7.60081L11.0489 2.92705Z" fill="#F5C64F"/>
<path d="M39.22 19H41.32V15.64H43.1L43.26 13.86H41.32V4.8H39.04L32.64 14.06V15.64H39.22V19ZM34.86 13.86L39.24 7.5H39.28C39.26 7.68 39.22 8.24 39.22 9.02V13.86H34.86ZM51.4122 17.82C51.4122 16.92 50.8722 16.36 50.0322 16.36C49.1322 16.36 48.5722 16.92 48.5722 17.74C48.5722 18.64 49.1322 19.2 49.9522 19.2C50.8322 19.2 51.4122 18.66 51.4122 17.82ZM61.4044 19.2C64.6244 19.2 66.2844 17.14 66.2844 14.86C66.2844 12.64 64.7444 10.44 60.0644 9.96L60.6644 6.74L66.2044 6.42L66.4444 4.46L59.0044 4.9L57.7644 11.54C62.5644 11.68 64.0044 13.38 64.0044 14.96C64.0044 16.34 63.0644 17.36 61.2444 17.36C60.2644 17.36 59.2244 17.1 57.8644 16.32V18.26C59.1444 18.96 60.2644 19.2 61.4044 19.2Z" fill="#303031"/>
</svg>
