<svg width="68" height="24" viewBox="0 0 68 24" fill="none" xmlns="http://www.w3.org/2000/svg">
<path d="M11.0489 2.92705C11.3483 2.00574 12.6517 2.00574 12.9511 2.92705L14.4697 7.60081C14.6035 8.01284 14.9875 8.2918 15.4207 8.2918H20.335C21.3037 8.2918 21.7065 9.53141 20.9228 10.1008L16.947 12.9894C16.5966 13.244 16.4499 13.6954 16.5838 14.1074L18.1024 18.7812C18.4017 19.7025 17.3472 20.4686 16.5635 19.8992L12.5878 17.0106C12.2373 16.756 11.7627 16.756 11.4122 17.0106L7.43648 19.8992C6.65276 20.4686 5.59828 19.7025 5.89763 18.7812L7.41623 14.1074C7.55011 13.6954 7.40345 13.244 7.05296 12.9894L3.07722 10.1008C2.29351 9.53141 2.69628 8.2918 3.66501 8.2918H8.57929C9.01252 8.2918 9.39647 8.01284 9.53035 7.60081L11.0489 2.92705Z" fill="#F5C64F"/>
<path d="M39.22 19H41.32V15.64H43.1L43.26 13.86H41.32V4.8H39.04L32.64 14.06V15.64H39.22V19ZM34.86 13.86L39.24 7.5H39.28C39.26 7.68 39.22 8.24 39.22 9.02V13.86H34.86ZM51.4122 17.82C51.4122 16.92 50.8722 16.36 50.0322 16.36C49.1322 16.36 48.5722 16.92 48.5722 17.74C48.5722 18.64 49.1322 19.2 49.9522 19.2C50.8322 19.2 51.4122 18.66 51.4122 17.82ZM66.9244 15.24C66.9244 14.06 66.3444 12.6 63.8844 11.54C65.7044 10.7 66.5244 9.46 66.5244 8.08C66.5244 6.12 64.8644 4.6 62.0844 4.6C59.1044 4.6 57.3244 6.32 57.3244 8.42C57.3244 9.42 57.8044 10.82 59.8044 11.86C57.8844 12.78 57.0444 14 57.0444 15.44C57.0444 17.6 58.9644 19.2 61.8644 19.2C65.3444 19.2 66.9244 17.06 66.9244 15.24ZM64.4444 8.22C64.4444 9.12 63.9044 10.16 62.0844 10.84C60.0444 10.04 59.5244 9.1 59.5244 8.24C59.5244 7.1 60.4644 6.22 61.9644 6.22C63.5244 6.22 64.4444 7.12 64.4444 8.22ZM64.6844 15.44C64.6844 16.46 63.7044 17.54 62.0044 17.54C60.1844 17.54 59.1644 16.46 59.1644 15.26C59.1644 14.28 59.7044 13.34 61.5244 12.56C64.0444 13.42 64.6844 14.5 64.6844 15.44Z" fill="#303031"/>
</svg>
