<svg width="68" height="24" viewBox="0 0 68 24" fill="none" xmlns="http://www.w3.org/2000/svg">
<path d="M11.0489 2.92705C11.3483 2.00574 12.6517 2.00574 12.9511 2.92705L14.4697 7.60081C14.6035 8.01284 14.9875 8.2918 15.4207 8.2918H20.335C21.3037 8.2918 21.7065 9.53141 20.9228 10.1008L16.947 12.9894C16.5966 13.244 16.4499 13.6954 16.5838 14.1074L18.1024 18.7812C18.4017 19.7025 17.3472 20.4686 16.5635 19.8992L12.5878 17.0106C12.2373 16.756 11.7627 16.756 11.4122 17.0106L7.43648 19.8992C6.65276 20.4686 5.59828 19.7025 5.89763 18.7812L7.41623 14.1074C7.55011 13.6954 7.40345 13.244 7.05296 12.9894L3.07722 10.1008C2.29351 9.53141 2.69628 8.2918 3.66501 8.2918H8.57929C9.01252 8.2918 9.39647 8.01284 9.53035 7.60081L11.0489 2.92705Z" fill="#F5C64F"/>
<path d="M39.22 19H41.32V15.64H43.1L43.26 13.86H41.32V4.8H39.04L32.64 14.06V15.64H39.22V19ZM34.86 13.86L39.24 7.5H39.28C39.26 7.68 39.22 8.24 39.22 9.02V13.86H34.86ZM51.4122 17.82C51.4122 16.92 50.8722 16.36 50.0322 16.36C49.1322 16.36 48.5722 16.92 48.5722 17.74C48.5722 18.64 49.1322 19.2 49.9522 19.2C50.8322 19.2 51.4122 18.66 51.4122 17.82ZM66.5244 19L66.7044 17.16H60.3244L62.2244 15.24C65.3244 12.14 65.9644 10.34 65.9644 8.8C65.9644 6.34 64.1244 4.6 61.2644 4.6C60.0444 4.6 58.7444 4.9 57.5844 5.6L57.7444 7.38C58.9844 6.66 59.9844 6.44 60.8844 6.44C62.5244 6.44 63.7244 7.34 63.7244 8.96C63.7244 10.04 63.2844 11.36 60.4044 14.38L57.6044 17.32V19H66.5244Z" fill="#303031"/>
</svg>
